<svg enable-background="new 0 0 564.5 366.9" viewBox="0 0 564.5 366.9" xmlns="http://www.w3.org/2000/svg"><g transform="matrix(1.2152823 0 0 1.2152823 -67.025868 -37.711623)"><path d="m519.7 182.2c0 79.5-64.3 143.9-143.6 143.9s-143.6-64.4-143.6-143.9 64.2-143.9 143.5-143.9 143.7 64.4 143.7 143.9z" fill="#f79f1a"/><path d="m342.4 182.2c0 79.5-64.3 143.9-143.6 143.9s-143.6-64.4-143.6-143.9 64.3-143.9 143.6-143.9 143.6 64.4 143.6 143.9z" fill="#ea001b"/><path d="m287.4 68.9c-33.5 26.3-55 67.3-55 113.3s21.5 87 55 113.3c33.5-26.3 55-67.3 55-113.3s-21.5-86.9-55-113.3z" fill="#ff5f01"/></g><path d="m9.3 14.1v-4h-1l-1.2 2.8-1.2-2.9h-1.1v4h.7v-3l1.1 2.6h.8l1.2-2.6v3.1zm-6.7 0v-3.4h1.4v-.7h-3.4v.7h1.4v3.4z" fill="#f79f1a" transform="matrix(1.54391541525 0 0 1.54391541525 549.76700181862 254.81065474924)"/></svg>